HIERARCHY
ROOT hip
{
  OFFSET 0 0 0
  CHANNELS 6 Xposition Yposition Zposition Zrotation Yrotation Xrotation
  JOINT abdomen
  {
    OFFSET 0 20.6881 -0.73152
    CHANNELS 3 Zrotation Xrotation Yrotation
    JOINT chest
    {
      OFFSET 0 11.7043 -0.48768
      CHANNELS 3 Zrotation Xrotation Yrotation
      JOINT neck
      {
        OFFSET 0 22.1894 -2.19456
        CHANNELS 3 Zrotation Xrotation Yrotation
        JOINT head
        {
          OFFSET -0.24384 7.07133 1.2192
          CHANNELS 3 Zrotation Xrotation Yrotation
          JOINT leftEye
          {
            OFFSET 4.14528 8.04674 8.04672
            CHANNELS 3 Zrotation Xrotation Yrotation
            End Site
            {
              OFFSET 1 0 0
            }
          }
          JOINT rightEye
          {
            OFFSET -3.6576 8.04674 8.04672
            CHANNELS 3 Zrotation Xrotation Yrotation
            End Site
            {
              OFFSET 1 0 0
            }
          }
        }
      }
      JOINT rCollar
      {
        OFFSET -2.68224 19.2634 -4.8768
        CHANNELS 3 Zrotation Xrotation Yrotation
        JOINT rShldr
        {
          OFFSET -8.77824 -1.95073 1.46304
          CHANNELS 3 Zrotation Xrotation Yrotation
          JOINT rForeArm
          {
            OFFSET -28.1742 -1.7115 0.48768
            CHANNELS 3 Zrotation Xrotation Yrotation
            JOINT rHand
            {
              OFFSET -22.5879 0.773209 7.07136
              CHANNELS 3 Zrotation Xrotation Yrotation
              JOINT rThumb1
              {
                OFFSET -1.2192 -0.487915 3.41376
                CHANNELS 3 Zrotation Xrotation Yrotation
                JOINT rThumb2
                {
                  OFFSET -3.37035 -0.52449 3.41376
                  CHANNELS 3 Zrotation Xrotation Yrotation
                  End Site
                  {
                    OFFSET -1.78271 -1.18214 1.43049
                  }
                }
              }
              JOINT rIndex1
              {
                OFFSET -7.75947 0.938293 5.60832
                CHANNELS 3 Zrotation Xrotation Yrotation
                JOINT rIndex2
                {
                  OFFSET -2.54057 -0.884171 1.56538
                  CHANNELS 3 Zrotation Xrotation Yrotation
                  End Site
                  {
                    OFFSET -1.62519 -0.234802 1.16502
                  }
                }
              }
              JOINT rMid1
              {
                OFFSET -8.24714 1.18213 3.41376
                CHANNELS 3 Zrotation Xrotation Yrotation
                JOINT rMid2
                {
                  OFFSET -3.10165 -0.590103 1.0647
                  CHANNELS 3 Zrotation Xrotation Yrotation
                  End Site
                  {
                    OFFSET -2.48547 -0.328903 0.83742
                  }
                }
              }
              JOINT rRing1
              {
                OFFSET -8.82822 0.546677 1.51678
                CHANNELS 3 Zrotation Xrotation Yrotation
                JOINT rRing2
                {
                  OFFSET -2.60934 -0.819778 -0.0198488
                  CHANNELS 3 Zrotation Xrotation Yrotation
                  End Site
                  {
                    OFFSET -2.33842 -0.294052 0.168128
                  }
                }
              }
              JOINT rPinky1
              {
                OFFSET -8.27202 -0.0477905 -0.4584
                CHANNELS 3 Zrotation Xrotation Yrotation
                JOINT rPinky2
                {
                  OFFSET -1.82734 -0.647385 -0.700984
                  CHANNELS 3 Zrotation Xrotation Yrotation
                  End Site
                  {
                    OFFSET -1.69225 -0.51767 -0.607171
                  }
                }
              }
            }
          }
        }
      }
      JOINT lCollar
      {
        OFFSET 2.68224 19.2634 -4.8768
        CHANNELS 3 Zrotation Xrotation Yrotation
        JOINT lShldr
        {
          OFFSET 8.77824 -1.95073 1.46304
          CHANNELS 3 Zrotation Xrotation Yrotation
          JOINT lForeArm
          {
            OFFSET 28.1742 -1.7115 0.48768
            CHANNELS 3 Zrotation Xrotation Yrotation
            JOINT lHand
            {
              OFFSET 22.5879 0.773209 7.07136
              CHANNELS 3 Zrotation Xrotation Yrotation
              JOINT lThumb1
              {
                OFFSET 1.2192 -0.487915 3.41376
                CHANNELS 3 Zrotation Xrotation Yrotation
                JOINT lThumb2
                {
                  OFFSET 3.37035 -0.52449 3.41376
                  CHANNELS 3 Zrotation Xrotation Yrotation
                  End Site
                  {
                    OFFSET 1.78271 -1.18214 1.43049
                  }
                }
              }
              JOINT lIndex1
              {
                OFFSET 7.75947 0.938293 5.60832
                CHANNELS 3 Zrotation Xrotation Yrotation
                JOINT lIndex2
                {
                  OFFSET 2.54057 -0.884171 1.56538
                  CHANNELS 3 Zrotation Xrotation Yrotation
                  End Site
                  {
                    OFFSET 1.62519 -0.234802 1.16502
                  }
                }
              }
              JOINT lMid1
              {
                OFFSET 8.24714 1.18213 3.41376
                CHANNELS 3 Zrotation Xrotation Yrotation
                JOINT lMid2
                {
                  OFFSET 3.10165 -0.590103 1.0647
                  CHANNELS 3 Zrotation Xrotation Yrotation
                  End Site
                  {
                    OFFSET 2.48547 -0.328903 0.83742
                  }
                }
              }
              JOINT lRing1
              {
                OFFSET 8.82822 0.546677 1.51678
                CHANNELS 3 Zrotation Xrotation Yrotation
                JOINT lRing2
                {
                  OFFSET 2.60934 -0.819778 -0.0198488
                  CHANNELS 3 Zrotation Xrotation Yrotation
                  End Site
                  {
                    OFFSET 2.33842 -0.294052 0.168128
                  }
                }
              }
              JOINT lPinky1
              {
                OFFSET 8.27202 -0.0477905 -0.4584
                CHANNELS 3 Zrotation Xrotation Yrotation
                JOINT lPinky2
                {
                  OFFSET 1.82734 -0.647385 -0.700984
                  CHANNELS 3 Zrotation Xrotation Yrotation
                  End Site
                  {
                    OFFSET 1.69225 -0.51767 -0.607171
                  }
                }
              }
            }
          }
        }
      }
    }
  }
  JOINT rButtock
  {
    OFFSET -8.77824 4.35084 1.2192
    CHANNELS 3 Zrotation Xrotation Yrotation
    JOINT rThigh
    {
      OFFSET 0 -1.70687 -2.19456
      CHANNELS 3 Zrotation Xrotation Yrotation
      JOINT rShin
      {
        OFFSET 0 -36.8199 0.73152
        CHANNELS 3 Zrotation Xrotation Yrotation
        JOINT rFoot
        {
          OFFSET 0.73152 -45.1104 -5.12064
          CHANNELS 3 Zrotation Xrotation Yrotation
          End Site
          {
            OFFSET -1.1221 -3.69964 12.103
          }
        }
      }
    }
  }
  JOINT lButtock
  {
    OFFSET 8.77824 4.35084 1.2192
    CHANNELS 3 Zrotation Xrotation Yrotation
    JOINT lThigh
    {
      OFFSET 0 -1.70687 -2.19456
      CHANNELS 3 Zrotation Xrotation Yrotation
      JOINT lShin
      {
        OFFSET 0 -36.8199 0.73152
        CHANNELS 3 Zrotation Xrotation Yrotation
        JOINT lFoot
        {
          OFFSET -0.73152 -45.1104 -5.12064
          CHANNELS 3 Zrotation Xrotation Yrotation
          End Site
          {
            OFFSET 1.1221 -3.69964 12.103
          }
        }
      }
    }
  }
}
MOTION
Frames:	4
Frame Time:	0.00833333
32.3919 57.497299999999996 -195.2192 -4.679898 -15.478734 5.340817 0.64335 13.259089 -141.26029 5.147909 4.300226 155.238311 7.66456 26.205553 108.404643 -44.575712 20.35937 -107.939544 1.279143 0.008839 0.791827 1.324406 0.01546 1.337497 4.851948 -44.732547 -8.140191 78.133773 10.177269 6.717485 122.7219 53.298682 13.65729 -31.83669 33.968804 11.74801 18.023321 -16.314375 -0.854603 16.429488 -44.277795 -23.848131 -96.733881 39.039547 84.492787 66.335659 -63.636664 22.675629 -159.298221 -4.962474 143.23486 -15.145278 40.818625 9.077854 3.173265 -0.045524 0.799574 2.857159 38.656692 6.236532 -134.385422 -11.482786 -133.038217 -41.196289 -47.40218 -44.378871 0.348242 -0.267822 -0.194722 -168.553543 -76.530345 -82.369261 167.619451 67.990992 104.868538 7.700343 22.481607 1.514299 171.074574 -9.513511 -90.84797 -170.144778 -26.74859 -97.869866 130.092871 17.449635 -109.469736 51.613406 53.89505 -31.907723 161.123742 -7.706866 -142.421869 126.462884 50.252101 -116.037322 73.803057 72.677882 -91.770529 123.375988 81.539332 -131.237914 -5.134917 18.63669 -8.480446 -17.865544 43.573729 -7.590945 0.30203 -2.12167 -0.376885 2.28103 -35.188587 -176.045928 -44.238708 -78.365116 63.647263 93.432405 19.678783 7.532327 -178.867855 78.609238 -0.0 -169.510234 9.241965 -1.495338 3.443538 66.268283 111.586372 -6.517147 4.541395 -95.422126
32.5178 57.353 -196.66539999999998 -3.966226 -10.95687 4.912779 -0.752679 13.601978 -176.802644 0.077103 6.374088 -170.119241 -14.310128 25.98414 -82.425973 48.755897 6.440977 68.017483 1.547911 0.004512 0.334002 1.372926 0.014915 1.244758 -155.469538 -4.075451 161.742306 172.726704 -20.183939 -125.706677 -90.028871 -48.015903 64.70114 158.08543 -77.927192 136.709454 83.839397 -50.897855 32.446267 -20.215274 -16.482249 -19.910994 -146.244085 -12.605609 121.860966 14.991088 -9.078995 -12.543074 6.924533 -18.179149 -2.631139 16.700941 -30.614099 1.507335 -142.462855 1.357194 179.22202 12.459386 48.682248 -1.230137 -144.553741 13.476329 -142.077166 -126.896926 -26.722927 -124.278748 150.396056 22.331223 -154.613565 66.686272 6.675355 -11.820619 -6.760982 8.131593 115.589629 -171.682594 -18.281334 -141.215838 3.224498 4.567717 0.404018 29.349226 21.118012 -27.358896 95.359514 40.92808 -80.508979 -3.742054 0.71016 5.024232 -71.124785 -79.330339 -42.864479 164.80041 -3.816959 -142.229514 -0.582019 0.886666 -1.064129 43.874181 -87.626876 63.482679 7.969842 -20.470658 5.285134 126.295101 -27.365519 125.397093 1.231646 -1.795403 0.606551 0.428956 -38.019324 177.506117 -28.084721 -81.527254 78.854103 -136.247713 -44.841758 -25.44595 -0.033548 -2.6774 -0.718154 21.652671 -65.676091 23.541078 13.287801 68.005374 73.004648 -0.145267 -13.103575 -71.897825
32.6914 57.023199999999996 -198.2346 -3.295939 -6.398101 4.578882 -0.626572 19.187857 -4.355541 1.371876 -11.410746 16.028493 7.597172 26.975295 109.26374 -44.898099 23.671643 -116.259866 1.432155 -0.009019 -0.721631 1.270341 0.016122 1.454155 -150.006716 21.671946 155.168699 -86.739686 -34.918949 -45.921389 -110.314043 -81.85775 6.342838 -7.756912 -27.401615 -7.052657 177.929361 -21.653501 89.49296 168.659935 -31.670423 106.526141 -43.436531 41.806249 35.124451 11.132954 -11.13002 -2.754291 -170.518327 -41.248366 145.584702 -4.042517 24.23927 3.198692 -143.162418 1.601163 179.503082 -153.953129 0.339852 178.797455 -139.473271 -3.086788 -135.808822 3.286632 0.271267 -3.065785 -1.747506 -18.320381 3.179917 -82.810607 15.596515 -3.925506 17.234904 21.659242 -86.956098 3.089693 1.920769 3.294196 -71.656204 -49.547795 -24.420681 154.380984 -80.283203 -157.282299 -43.09892 -64.611557 -1.903127 46.85983 51.48189 -39.91235 -8.124091 -24.797169 1.988842 34.902049 55.371946 -27.898888 144.108605 4.715079 -177.827195 59.704691 88.047215 -74.822852 17.433002 -35.255487 15.277791 15.65434 -31.713758 18.83617 0.064826 -1.234328 -0.081933 1.179086 -39.298696 0.764982 39.389836 76.45874 -96.986873 -157.439316 -24.644845 -16.887369 178.02558 77.937589 2.018962 -173.766983 7.447916 -0.687838 -1.539774 71.576696 54.599321 -97.082127 11.561127 10.975094
32.920500000000004 56.700700000000005 -199.8665 -2.753856 -1.878094 4.480095 -0.52103 19.723477 0.90953 0.855736 -11.785656 9.181937 -12.737704 20.423927 -47.362139 38.793437 -20.38732 34.785972 0.915581 -0.012846 -1.60765 1.133166 0.016108 1.628781 -9.588436 34.843896 11.186384 -104.214211 6.699633 75.7886 -176.593465 -41.71506 -63.055759 -10.701839 -16.103952 -5.121069 8.58226 -7.117659 -1.430362 -144.949846 -54.793801 125.990688 -128.454155 18.161381 111.200438 -173.881557 -33.436145 119.164598 -20.987342 41.756156 16.5481 -155.998058 17.303392 137.719309 -70.980268 72.951659 89.915565 -157.608363 -4.847633 177.75794 -28.020431 -36.516825 -26.810714 12.974633 27.85965 7.079476 -1.774549 -18.327404 3.080296 -84.846289 12.787919 -6.344961 14.71491 31.902594 -85.551542 4.290757 3.159281 3.398757 -115.519181 -51.812119 -56.343818 16.678651 -48.51742 28.122686 16.252242 21.881706 -10.076605 164.062675 -12.20093 -108.597292 9.158219 20.595131 -6.563464 -78.741369 -79.228827 -50.869571 72.221369 70.568156 -91.007824 -5.64026 54.92144 -1.219853 144.248942 13.859894 146.534226 127.707983 -30.904908 125.441605 -0.007026 -0.533145 0.008967 -0.810809 -45.589584 -180.0 -85.410887 -67.247359 -146.568651 116.52279 37.026613 161.171435 175.965669 77.225399 3.372296 -174.239627 4.735746 -112.915836 -78.011976 -34.437053 30.074418 78.335735 -76.6917 168.998004
